<svg width="31" height="30" viewBox="0 0 31 30" fill="none" xmlns="http://www.w3.org/2000/svg">
<path d="M29.1 28.5L22.5855 21.9855M22.5855 21.9855C23.6998 20.8712 24.5838 19.5483 25.1869 18.0924C25.7899 16.6364 26.1003 15.0759 26.1003 13.5C26.1003 11.9241 25.7899 10.3637 25.1869 8.90772C24.5838 7.45177 23.6998 6.12887 22.5855 5.01453C21.4712 3.9002 20.1483 3.01627 18.6923 2.41319C17.2364 1.81012 15.6759 1.49973 14.1 1.49973C12.5241 1.49973 10.9636 1.81012 9.50769 2.41319C8.05175 3.01627 6.72884 3.9002 5.61451 5.01453C3.36402 7.26503 2.0997 10.3174 2.0997 13.5C2.0997 16.6827 3.36402 19.735 5.61451 21.9855C7.865 24.236 10.9173 25.5003 14.1 25.5003C17.2827 25.5003 20.335 24.236 22.5855 21.9855Z" stroke="#9E6236" stroke-width="2.4" stroke-linecap="round" stroke-linejoin="round"/>
</svg>
